<svg xmlns="http://www.w3.org/2000/svg" xmlns:xlink="http://www.w3.org/1999/xlink" viewBox="0,0,256,256" width="64px" height="64px" fill-rule="nonzero"><defs><linearGradient x1="41" y1="25.5" x2="41" y2="36.571" gradientUnits="userSpaceOnUse" id="color-1"><stop offset="0" stop-color="#ffffff"></stop><stop offset="1" stop-color="#1e1c98"></stop></linearGradient><linearGradient x1="32" y1="5.75" x2="32" y2="57.868" gradientUnits="userSpaceOnUse" id="color-2"><stop offset="0" stop-color="#8381fd"></stop><stop offset="1" stop-color="#1d1a99"></stop></linearGradient><linearGradient x1="32" y1="5.75" x2="32" y2="57.868" gradientUnits="userSpaceOnUse" id="color-3"><stop offset="0" stop-color="#8381fd"></stop><stop offset="1" stop-color="#1d1a99"></stop></linearGradient><linearGradient x1="26" y1="5.75" x2="26" y2="57.868" gradientUnits="userSpaceOnUse" id="color-4"><stop offset="0" stop-color="#8381fd"></stop><stop offset="1" stop-color="#1d1a99"></stop></linearGradient><linearGradient x1="26" y1="5.75" x2="26" y2="57.868" gradientUnits="userSpaceOnUse" id="color-5"><stop offset="0" stop-color="#8381fd"></stop><stop offset="1" stop-color="#1d1a99"></stop></linearGradient><linearGradient x1="26" y1="5.75" x2="26" y2="57.868" gradientUnits="userSpaceOnUse" id="color-6"><stop offset="0" stop-color="#8381fd"></stop><stop offset="1" stop-color="#1d1a99"></stop></linearGradient><linearGradient x1="41" y1="5.75" x2="41" y2="57.868" gradientUnits="userSpaceOnUse" id="color-7"><stop offset="0" stop-color="#8381fd"></stop><stop offset="1" stop-color="#1d1a99"></stop></linearGradient><linearGradient x1="20" y1="5.75" x2="20" y2="57.868" gradientUnits="userSpaceOnUse" id="color-8"><stop offset="0" stop-color="#8381fd"></stop><stop offset="1" stop-color="#1d1a99"></stop></linearGradient><linearGradient x1="24" y1="5.75" x2="24" y2="57.868" gradientUnits="userSpaceOnUse" id="color-9"><stop offset="0" stop-color="#8381fd"></stop><stop offset="1" stop-color="#1d1a99"></stop></linearGradient><linearGradient x1="28" y1="5.75" x2="28" y2="57.868" gradientUnits="userSpaceOnUse" id="color-10"><stop offset="0" stop-color="#8381fd"></stop><stop offset="1" stop-color="#1d1a99"></stop></linearGradient><linearGradient x1="32" y1="5.75" x2="32" y2="57.868" gradientUnits="userSpaceOnUse" id="color-11"><stop offset="0" stop-color="#8381fd"></stop><stop offset="1" stop-color="#1d1a99"></stop></linearGradient><linearGradient x1="43" y1="5.75" x2="43" y2="57.868" gradientUnits="userSpaceOnUse" id="color-12"><stop offset="0" stop-color="#8381fd"></stop><stop offset="1" stop-color="#1d1a99"></stop></linearGradient><linearGradient x1="26" y1="5.75" x2="26" y2="57.868" gradientUnits="userSpaceOnUse" id="color-13"><stop offset="0" stop-color="#8381fd"></stop><stop offset="1" stop-color="#1d1a99"></stop></linearGradient></defs><g fill="none" fill-rule="nonzero" stroke="none" stroke-width="1" stroke-linecap="butt" stroke-linejoin="miter" stroke-miterlimit="10" stroke-dasharray="" stroke-dashoffset="0" font-family="none" font-weight="none" font-size="none" text-anchor="none" style="mix-blend-mode: normal"><g transform="scale(4,4)"><path d="M38,36h6c0.552,0 1,-0.448 1,-1v-8c0,-0.552 -0.448,-1 -1,-1h-6c-0.552,0 -1,0.448 -1,1v8c0,0.552 0.448,1 1,1z" fill="url(#color-1)"></path><path d="M49,10h-2c0,-1.103 -0.897,-2 -2,-2h-8c0,-1.103 -0.897,-2 -2,-2h-6c-1.103,0 -2,0.897 -2,2h-8c-1.103,0 -2,0.897 -2,2h-2c-1.103,0 -2,0.897 -2,2v44c0,1.103 0.897,2 2,2h34c1.103,0 2,-0.897 2,-2v-44c0,-1.103 -0.897,-2 -2,-2zM29,8h6v5c0,1.654 -1.346,3 -3,3c-1.654,0 -3,-1.346 -3,-3zM15,12h12v1c0,2.757 2.243,5 5,5c2.757,0 5,-2.243 5,-5v-1h12v32h-10c-1.103,0 -2,0.897 -2,2v10h-22zM39,56v-10h10v10z" fill="url(#color-2)"></path><path d="M19,22h26v2h-26z" fill="url(#color-3)"></path><path d="M19,26h14v2h-14z" fill="url(#color-4)"></path><path d="M19,30h14v2h-14z" fill="url(#color-5)"></path><path d="M19,34h14v2h-14z" fill="url(#color-6)"></path><path d="M37,38h8v2h-8z" fill="url(#color-7)"></path><path d="M19,48h2v4h-2z" fill="url(#color-8)"></path><path d="M23,48h2v4h-2z" fill="url(#color-9)"></path><path d="M27,48h2v4h-2z" fill="url(#color-10)"></path><path d="M31,48h2v4h-2z" fill="url(#color-11)"></path><path d="M41,50v2h2v-2h2v-2h-2c-1.103,0 -2,0.897 -2,2z" fill="url(#color-12)"></path><path d="M19,38h14v2h-14z" fill="url(#color-13)"></path></g></g></svg>